<?xml version="1.0" encoding="utf-8"?>
<!-- Generator: Adobe Illustrator 27.1.1, SVG Export Plug-In . SVG Version: 6.00 Build 0)  -->
<svg version="1.1" id="chart-525cce9e-24c4-4db6-b6a0-dc73c15fe2d6"
	 xmlns="http://www.w3.org/2000/svg" xmlns:xlink="http://www.w3.org/1999/xlink" x="0px" y="0px" viewBox="0 0 800 600"
	 style="enable-background:new 0 0 800 600;" xml:space="preserve">
<style type="text/css">
	.st0{fill:none;stroke:#000000;stroke-dasharray:4,4;}
	.st1{font-family:'Menlo-Regular';}
	.st2{font-size:10px;}
	.st3{fill:none;stroke:#000000;stroke-dasharray:6,6;}
	.st4{fill:none;stroke:#F44336;stroke-opacity:0.8;}
	.st5{fill:none;stroke:#3F51B5;stroke-opacity:0.8;}
	.st6{fill:none;stroke:#009688;stroke-opacity:0.8;}
	.st7{fill:#F44336;stroke:#F44336;}
	.st8{fill:#3F51B5;stroke:#3F51B5;}
	.st9{fill:#009688;stroke:#009688;}
	.st10{opacity:0;}
	.st11{fill-opacity:0.95;}
	.st12{fill:#F44336;fill-opacity:0.7;stroke:#F44336;stroke-opacity:0.8;}
	.st13{font-size:14px;}
	.st14{fill:#3F51B5;fill-opacity:0.7;stroke:#3F51B5;stroke-opacity:0.8;}
	.st15{fill:#009688;fill-opacity:0.7;stroke:#009688;stroke-opacity:0.8;}
</style>
<defs>
	<script  type="text/javascript">
		window.pygal = window.pygal || {};window.pygal.config = window.pygal.config || {};window.pygal.config[&apos;525cce9e-24c4-4db6-b6a0-dc73c15fe2d6&apos;] = {&quot;allow_interruptions&quot;: false, &quot;box_mode&quot;: &quot;extremes&quot;, &quot;classes&quot;: [&quot;pygal-chart&quot;], &quot;css&quot;: [&quot;file://style.css&quot;, &quot;file://graph.css&quot;], &quot;defs&quot;: [], &quot;disable_xml_declaration&quot;: false, &quot;dots_size&quot;: 2.5, &quot;dynamic_print_values&quot;: false, &quot;explicit_size&quot;: false, &quot;fill&quot;: false, &quot;force_uri_protocol&quot;: &quot;https&quot;, &quot;formatter&quot;: null, &quot;half_pie&quot;: false, &quot;height&quot;: 600, &quot;include_x_axis&quot;: false, &quot;inner_radius&quot;: 0, &quot;interpolate&quot;: null, &quot;interpolation_parameters&quot;: {}, &quot;interpolation_precision&quot;: 250, &quot;inverse_y_axis&quot;: false, &quot;js&quot;: [&quot;//kozea.github.io/pygal.js/2.0.x/pygal-tooltips.min.js&quot;], &quot;legend_at_bottom&quot;: false, &quot;legend_at_bottom_columns&quot;: null, &quot;legend_box_size&quot;: 12, &quot;logarithmic&quot;: false, &quot;margin&quot;: 20, &quot;margin_bottom&quot;: null, &quot;margin_left&quot;: null, &quot;margin_right&quot;: null, &quot;margin_top&quot;: null, &quot;max_scale&quot;: 16, &quot;min_scale&quot;: 4, &quot;missing_value_fill_truncation&quot;: &quot;x&quot;, &quot;no_data_text&quot;: &quot;No data&quot;, &quot;no_prefix&quot;: false, &quot;order_min&quot;: null, &quot;pretty_print&quot;: false, &quot;print_labels&quot;: false, &quot;print_values&quot;: false, &quot;print_values_position&quot;: &quot;center&quot;, &quot;print_zeroes&quot;: true, &quot;range&quot;: [0, 2.4], &quot;rounded_bars&quot;: null, &quot;secondary_range&quot;: null, &quot;show_dots&quot;: true, &quot;show_legend&quot;: true, &quot;show_minor_x_labels&quot;: true, &quot;show_minor_y_labels&quot;: true, &quot;show_only_major_dots&quot;: false, &quot;show_x_guides&quot;: false, &quot;show_x_labels&quot;: true, &quot;show_y_guides&quot;: true, &quot;show_y_labels&quot;: true, &quot;spacing&quot;: 10, &quot;stack_from_top&quot;: false, &quot;strict&quot;: false, &quot;stroke&quot;: true, &quot;stroke_style&quot;: null, &quot;style&quot;: {&quot;background&quot;: &quot;rgba(249, 249, 249, 1)&quot;, &quot;ci_colors&quot;: [], &quot;colors&quot;: [&quot;#F44336&quot;, &quot;#3F51B5&quot;, &quot;#009688&quot;, &quot;#FFC107&quot;, &quot;#FF5722&quot;, &quot;#9C27B0&quot;, &quot;#03A9F4&quot;, &quot;#8BC34A&quot;, &quot;#FF9800&quot;, &quot;#E91E63&quot;, &quot;#2196F3&quot;, &quot;#4CAF50&quot;, &quot;#FFEB3B&quot;, &quot;#673AB7&quot;, &quot;#00BCD4&quot;, &quot;#CDDC39&quot;, &quot;#9E9E9E&quot;, &quot;#607D8B&quot;], &quot;dot_opacity&quot;: &quot;1&quot;, &quot;font_family&quot;: &quot;Consolas, \&quot;Liberation Mono\&quot;, Menlo, Courier, monospace&quot;, &quot;foreground&quot;: &quot;rgba(0, 0, 0, .87)&quot;, &quot;foreground_strong&quot;: &quot;rgba(0, 0, 0, 1)&quot;, &quot;foreground_subtle&quot;: &quot;rgba(0, 0, 0, .54)&quot;, &quot;guide_stroke_color&quot;: &quot;black&quot;, &quot;guide_stroke_dasharray&quot;: &quot;4,4&quot;, &quot;label_font_family&quot;: &quot;Consolas, \&quot;Liberation Mono\&quot;, Menlo, Courier, monospace&quot;, &quot;label_font_size&quot;: 10, &quot;legend_font_family&quot;: &quot;Consolas, \&quot;Liberation Mono\&quot;, Menlo, Courier, monospace&quot;, &quot;legend_font_size&quot;: 14, &quot;major_guide_stroke_color&quot;: &quot;black&quot;, &quot;major_guide_stroke_dasharray&quot;: &quot;6,6&quot;, &quot;major_label_font_family&quot;: &quot;Consolas, \&quot;Liberation Mono\&quot;, Menlo, Courier, monospace&quot;, &quot;major_label_font_size&quot;: 10, &quot;no_data_font_family&quot;: &quot;Consolas, \&quot;Liberation Mono\&quot;, Menlo, Courier, monospace&quot;, &quot;no_data_font_size&quot;: 64, &quot;opacity&quot;: &quot;.7&quot;, &quot;opacity_hover&quot;: &quot;.8&quot;, &quot;plot_background&quot;: &quot;rgba(255, 255, 255, 1)&quot;, &quot;stroke_opacity&quot;: &quot;.8&quot;, &quot;stroke_opacity_hover&quot;: &quot;.9&quot;, &quot;stroke_width&quot;: &quot;1&quot;, &quot;stroke_width_hover&quot;: &quot;4&quot;, &quot;title_font_family&quot;: &quot;Consolas, \&quot;Liberation Mono\&quot;, Menlo, Courier, monospace&quot;, &quot;title_font_size&quot;: 16, &quot;tooltip_font_family&quot;: &quot;Consolas, \&quot;Liberation Mono\&quot;, Menlo, Courier, monospace&quot;, &quot;tooltip_font_size&quot;: 14, &quot;transition&quot;: &quot;150ms&quot;, &quot;value_background&quot;: &quot;rgba(229, 229, 229, 1)&quot;, &quot;value_colors&quot;: [], &quot;value_font_family&quot;: &quot;Consolas, \&quot;Liberation Mono\&quot;, Menlo, Courier, monospace&quot;, &quot;value_font_size&quot;: 16, &quot;value_label_font_family&quot;: &quot;Consolas, \&quot;Liberation Mono\&quot;, Menlo, Courier, monospace&quot;, &quot;value_label_font_size&quot;: 10}, &quot;title&quot;: null, &quot;tooltip_border_radius&quot;: 0, &quot;tooltip_fancy_mode&quot;: true, &quot;truncate_label&quot;: null, &quot;truncate_legend&quot;: null, &quot;width&quot;: 800, &quot;x_label_rotation&quot;: 0, &quot;x_labels&quot;: [&quot;Caring About Animals&quot;, &quot;Support for Institutional Welfare Solutions&quot;, &quot;Knowledge about Farmed Animal Conditions&quot;, &quot;Consumption of Animal Products (Self-Reported)&quot;, &quot;Perceptions of Meat &amp; Plant-Based Food&quot;, &quot;Support for Farmed Animal Advocacy&quot;, &quot;Perceptions of Intersecting Issues&quot;], &quot;x_labels_major&quot;: null, &quot;x_labels_major_count&quot;: null, &quot;x_labels_major_every&quot;: null, &quot;x_title&quot;: null, &quot;xrange&quot;: null, &quot;y_label_rotation&quot;: 0, &quot;y_labels&quot;: null, &quot;y_labels_major&quot;: null, &quot;y_labels_major_count&quot;: null, &quot;y_labels_major_every&quot;: null, &quot;y_title&quot;: null, &quot;zero&quot;: 0, &quot;legends&quot;: [&quot;Cluster 2&quot;, &quot;Cluster -std2&quot;, &quot;Cluster +std2&quot;]}
		</script>
	<script  type="text/javascript"></script>
</defs>
<g>
	<g transform="translate(179, 20)">
		<g>
			<g>
				<path class="st0" d="M300.4,20L82.9,114.1L29.2,325.6l150.5,169.6h241.4l150.5-169.6l-53.7-211.5L300.4,20z"/>
				<text transform="matrix(1 0 0 1 277.3385 20)" class="st1 st2">2.4</text>
			</g>
			<g>
				<path class="st3" d="M300.4,61.7l-181.2,78.4L74.4,316.4l125.4,141.3H401l125.4-141.3l-44.8-176.3L300.4,61.7z"/>
				<text transform="matrix(1 0 0 1 289.3795 61.6667)" class="st1 st2">2</text>
			</g>
			<g>
				<path class="st0" d="M300.4,103.3l-145,62.8l-35.8,141l100.3,113.1h160.9l100.3-113.1l-35.8-141L300.4,103.3z"/>
				<text transform="matrix(1 0 0 1 277.3385 103.3333)" class="st1 st2">1.6</text>
			</g>
			<g>
				<path class="st0" d="M300.4,145l-108.7,47.1l-26.9,105.8l75.2,84.8h120.7l75.2-84.8l-26.9-105.8L300.4,145z"/>
				<text transform="matrix(1 0 0 1 277.3385 145)" class="st1 st2">1.2</text>
			</g>
			<g>
				<path class="st0" d="M300.4,186.7L227.9,218L210,288.5l50.2,56.5h80.5l50.2-56.5L372.9,218L300.4,186.7z"/>
				<text transform="matrix(1 0 0 1 277.3385 186.6667)" class="st1 st2">0.8</text>
			</g>
			<g>
				<path class="st0" d="M300.4,228.3L264.2,244l-9,35.3l25.1,28.3h40.2l25.1-28.3l-9-35.3L300.4,228.3z"/>
				<text transform="matrix(1 0 0 1 277.3385 228.3333)" class="st1 st2">0.4</text>
			</g>
			<g>
				<path class="st3" d="M300.4,270L300.4,270L300.4,270L300.4,270L300.4,270L300.4,270L300.4,270L300.4,270z"/>
				<text transform="matrix(1 0 0 1 289.3795 270)" class="st1 st2">0</text>
			</g>
		</g>
		<g>
			<g>
				<path d="M300.4,270V20"/>
				<text transform="matrix(1 0 0 1 240.1949 5.4)" class="st1 st2">Caring About Animals</text>
			</g>
			<g>
				<path d="M300.4,270L82.9,114.1"/>
				<text transform="matrix(0.6235 -0.7818 0.7818 0.6235 23.3136 163.8629)" class="st1 st2">Support for Institutiona…</text>
			</g>
			<g>
				<path d="M300.4,270L29.2,325.6"/>
				<text transform="matrix(0.2225 0.9749 -0.9749 0.2225 -3.3575 255.5095)" class="st1 st2">Knowledge about Farmed A…</text>
			</g>
			<g>
				<path d="M300.4,270L179.7,495.2"/>
				<text transform="matrix(0.901 0.4339 -0.4339 0.901 104.8645 475.7438)" class="st1 st2">Consumption of Animal Pr…</text>
			</g>
			<g>
				<path d="M300.4,270l120.7,225.2"/>
				<text transform="matrix(0.901 -0.4339 0.4339 0.901 360.3284 541.0487)" class="st1 st2">Perceptions of Meat &amp; Pl…</text>
			</g>
			<g>
				<path d="M300.4,270l271.2,55.6"/>
				<text transform="matrix(0.2225 -0.9749 0.9749 0.2225 570.6649 402.2489)" class="st1 st2">Support for Farmed Anima…</text>
			</g>
			<g>
				<path d="M300.4,270l217.5-155.9"/>
				<text transform="matrix(0.6235 0.7818 -0.7818 0.6235 483.6432 46.1869)" class="st1 st2">Perceptions of Intersect…</text>
			</g>
		</g>
		<g>
			<path class="st4" d="M300.4,123.1l-167.6,26.7L219,286.7l33.6,72.5l103.6,15l122.7-67.6l-66.2-117.2L300.4,123.1z"/>
		</g>
		<g>
			<path class="st5" d="M300.4,147.1l-136.8,24.8l82.6,109.2l13,65.8l84,2.8l82.7-54l-51.1-79L300.4,147.1z"/>
		</g>
		<g>
			<path class="st6" d="M300.4,99.2l-197.5,29.2l89.1,163.8l54.2,79.1l123.2,27.2L532,317.5l-81.2-155.3L300.4,99.2z"/>
		</g>
	</g>
	<g transform="translate(179, 20)">
		<g>
			<g>
				<circle class="st7" cx="300.4" cy="123.1" r="2.5"/>
			</g>
			<g>
				<circle class="st7" cx="132.8" cy="149.8" r="2.5"/>
			</g>
			<g>
				<circle class="st7" cx="219" cy="286.7" r="2.5"/>
			</g>
			<g>
				<circle class="st7" cx="252.6" cy="359.2" r="2.5"/>
			</g>
			<g>
				<circle class="st7" cx="356.2" cy="374.2" r="2.5"/>
			</g>
			<g>
				<circle class="st7" cx="478.9" cy="306.6" r="2.5"/>
			</g>
			<g>
				<circle class="st7" cx="412.8" cy="189.5" r="2.5"/>
			</g>
		</g>
		<g>
			<g>
				<circle class="st8" cx="300.4" cy="147.1" r="2.5"/>
			</g>
			<g>
				<circle class="st8" cx="163.6" cy="171.9" r="2.5"/>
			</g>
			<g>
				<circle class="st8" cx="246.2" cy="281.1" r="2.5"/>
			</g>
			<g>
				<circle class="st8" cx="259.2" cy="347" r="2.5"/>
			</g>
			<g>
				<circle class="st8" cx="343.1" cy="349.8" r="2.5"/>
			</g>
			<g>
				<circle class="st8" cx="425.8" cy="295.7" r="2.5"/>
			</g>
			<g>
				<circle class="st8" cx="374.7" cy="216.7" r="2.5"/>
			</g>
		</g>
		<g>
			<g>
				<circle class="st9" cx="300.4" cy="99.2" r="2.5"/>
			</g>
			<g>
				<circle class="st9" cx="102.9" cy="128.4" r="2.5"/>
			</g>
			<g>
				<circle class="st9" cx="191.9" cy="292.3" r="2.5"/>
			</g>
			<g>
				<circle class="st9" cx="246.1" cy="371.4" r="2.5"/>
			</g>
			<g>
				<circle class="st9" cx="369.3" cy="398.6" r="2.5"/>
			</g>
			<g>
				<circle class="st9" cx="532" cy="317.5" r="2.5"/>
			</g>
			<g>
				<circle class="st9" cx="450.8" cy="162.2" r="2.5"/>
			</g>
		</g>
	</g>
	<g transform="translate(179, 20)">
	</g>
	<g transform="translate(179, 20)">
		<g transform="translate(0 0)" class="st10">
			<polygon class="st11" points="0,0 0,0 0,0 			"/>
		</g>
	</g>
	<g transform="translate(10, 30)">
		<g id="activate-serie-0">
			<rect y="1" class="st12" width="12" height="12"/>
			<text transform="matrix(1 0 0 1 17 11.2)" class="st1 st13">Cluster 2</text>
		</g>
		<g id="activate-serie-1">
			<rect y="22" class="st14" width="12" height="12"/>
			<text transform="matrix(1 0 0 1 17 32.2)" class="st1 st13">Cluster -std2</text>
		</g>
		<g id="activate-serie-2">
			<rect y="43" class="st15" width="12" height="12"/>
			<text transform="matrix(1 0 0 1 17 53.2)" class="st1 st13">Cluster +std2</text>
		</g>
	</g>
	<g transform="translate(790, 30)">
	</g>
</g>
</svg>
