<?xml version="1.0" encoding="utf-8"?>
<!-- Generator: Adobe Illustrator 27.1.1, SVG Export Plug-In . SVG Version: 6.00 Build 0)  -->
<svg version="1.1" id="chart-30a27af4-32cc-4c3c-9307-f13b54ec3cc7"
	 xmlns="http://www.w3.org/2000/svg" xmlns:xlink="http://www.w3.org/1999/xlink" x="0px" y="0px" viewBox="0 0 800 600"
	 style="enable-background:new 0 0 800 600;" xml:space="preserve">
<style type="text/css">
	.st0{fill:none;stroke:#000000;stroke-dasharray:4,4;}
	.st1{font-family:'Menlo-Regular';}
	.st2{font-size:10px;}
	.st3{fill:none;stroke:#000000;stroke-dasharray:6,6;}
	.st4{fill:none;stroke:#F44336;stroke-opacity:0.8;}
	.st5{fill:none;stroke:#3F51B5;stroke-opacity:0.8;}
	.st6{fill:none;stroke:#009688;stroke-opacity:0.8;}
	.st7{fill:#F44336;stroke:#F44336;}
	.st8{fill:#3F51B5;stroke:#3F51B5;}
	.st9{fill:#009688;stroke:#009688;}
	.st10{opacity:0;}
	.st11{fill-opacity:0.95;}
	.st12{fill:#F44336;fill-opacity:0.7;stroke:#F44336;stroke-opacity:0.8;}
	.st13{font-size:14px;}
	.st14{fill:#3F51B5;fill-opacity:0.7;stroke:#3F51B5;stroke-opacity:0.8;}
	.st15{fill:#009688;fill-opacity:0.7;stroke:#009688;stroke-opacity:0.8;}
</style>
<defs>
	<script  type="text/javascript">
		window.pygal = window.pygal || {};window.pygal.config = window.pygal.config || {};window.pygal.config[&apos;30a27af4-32cc-4c3c-9307-f13b54ec3cc7&apos;] = {&quot;allow_interruptions&quot;: false, &quot;box_mode&quot;: &quot;extremes&quot;, &quot;classes&quot;: [&quot;pygal-chart&quot;], &quot;css&quot;: [&quot;file://style.css&quot;, &quot;file://graph.css&quot;], &quot;defs&quot;: [], &quot;disable_xml_declaration&quot;: false, &quot;dots_size&quot;: 2.5, &quot;dynamic_print_values&quot;: false, &quot;explicit_size&quot;: false, &quot;fill&quot;: false, &quot;force_uri_protocol&quot;: &quot;https&quot;, &quot;formatter&quot;: null, &quot;half_pie&quot;: false, &quot;height&quot;: 600, &quot;include_x_axis&quot;: false, &quot;inner_radius&quot;: 0, &quot;interpolate&quot;: null, &quot;interpolation_parameters&quot;: {}, &quot;interpolation_precision&quot;: 250, &quot;inverse_y_axis&quot;: false, &quot;js&quot;: [&quot;//kozea.github.io/pygal.js/2.0.x/pygal-tooltips.min.js&quot;], &quot;legend_at_bottom&quot;: false, &quot;legend_at_bottom_columns&quot;: null, &quot;legend_box_size&quot;: 12, &quot;logarithmic&quot;: false, &quot;margin&quot;: 20, &quot;margin_bottom&quot;: null, &quot;margin_left&quot;: null, &quot;margin_right&quot;: null, &quot;margin_top&quot;: null, &quot;max_scale&quot;: 16, &quot;min_scale&quot;: 4, &quot;missing_value_fill_truncation&quot;: &quot;x&quot;, &quot;no_data_text&quot;: &quot;No data&quot;, &quot;no_prefix&quot;: false, &quot;order_min&quot;: null, &quot;pretty_print&quot;: false, &quot;print_labels&quot;: false, &quot;print_values&quot;: false, &quot;print_values_position&quot;: &quot;center&quot;, &quot;print_zeroes&quot;: true, &quot;range&quot;: [0, 2.4], &quot;rounded_bars&quot;: null, &quot;secondary_range&quot;: null, &quot;show_dots&quot;: true, &quot;show_legend&quot;: true, &quot;show_minor_x_labels&quot;: true, &quot;show_minor_y_labels&quot;: true, &quot;show_only_major_dots&quot;: false, &quot;show_x_guides&quot;: false, &quot;show_x_labels&quot;: true, &quot;show_y_guides&quot;: true, &quot;show_y_labels&quot;: true, &quot;spacing&quot;: 10, &quot;stack_from_top&quot;: false, &quot;strict&quot;: false, &quot;stroke&quot;: true, &quot;stroke_style&quot;: null, &quot;style&quot;: {&quot;background&quot;: &quot;rgba(249, 249, 249, 1)&quot;, &quot;ci_colors&quot;: [], &quot;colors&quot;: [&quot;#F44336&quot;, &quot;#3F51B5&quot;, &quot;#009688&quot;, &quot;#FFC107&quot;, &quot;#FF5722&quot;, &quot;#9C27B0&quot;, &quot;#03A9F4&quot;, &quot;#8BC34A&quot;, &quot;#FF9800&quot;, &quot;#E91E63&quot;, &quot;#2196F3&quot;, &quot;#4CAF50&quot;, &quot;#FFEB3B&quot;, &quot;#673AB7&quot;, &quot;#00BCD4&quot;, &quot;#CDDC39&quot;, &quot;#9E9E9E&quot;, &quot;#607D8B&quot;], &quot;dot_opacity&quot;: &quot;1&quot;, &quot;font_family&quot;: &quot;Consolas, \&quot;Liberation Mono\&quot;, Menlo, Courier, monospace&quot;, &quot;foreground&quot;: &quot;rgba(0, 0, 0, .87)&quot;, &quot;foreground_strong&quot;: &quot;rgba(0, 0, 0, 1)&quot;, &quot;foreground_subtle&quot;: &quot;rgba(0, 0, 0, .54)&quot;, &quot;guide_stroke_color&quot;: &quot;black&quot;, &quot;guide_stroke_dasharray&quot;: &quot;4,4&quot;, &quot;label_font_family&quot;: &quot;Consolas, \&quot;Liberation Mono\&quot;, Menlo, Courier, monospace&quot;, &quot;label_font_size&quot;: 10, &quot;legend_font_family&quot;: &quot;Consolas, \&quot;Liberation Mono\&quot;, Menlo, Courier, monospace&quot;, &quot;legend_font_size&quot;: 14, &quot;major_guide_stroke_color&quot;: &quot;black&quot;, &quot;major_guide_stroke_dasharray&quot;: &quot;6,6&quot;, &quot;major_label_font_family&quot;: &quot;Consolas, \&quot;Liberation Mono\&quot;, Menlo, Courier, monospace&quot;, &quot;major_label_font_size&quot;: 10, &quot;no_data_font_family&quot;: &quot;Consolas, \&quot;Liberation Mono\&quot;, Menlo, Courier, monospace&quot;, &quot;no_data_font_size&quot;: 64, &quot;opacity&quot;: &quot;.7&quot;, &quot;opacity_hover&quot;: &quot;.8&quot;, &quot;plot_background&quot;: &quot;rgba(255, 255, 255, 1)&quot;, &quot;stroke_opacity&quot;: &quot;.8&quot;, &quot;stroke_opacity_hover&quot;: &quot;.9&quot;, &quot;stroke_width&quot;: &quot;1&quot;, &quot;stroke_width_hover&quot;: &quot;4&quot;, &quot;title_font_family&quot;: &quot;Consolas, \&quot;Liberation Mono\&quot;, Menlo, Courier, monospace&quot;, &quot;title_font_size&quot;: 16, &quot;tooltip_font_family&quot;: &quot;Consolas, \&quot;Liberation Mono\&quot;, Menlo, Courier, monospace&quot;, &quot;tooltip_font_size&quot;: 14, &quot;transition&quot;: &quot;150ms&quot;, &quot;value_background&quot;: &quot;rgba(229, 229, 229, 1)&quot;, &quot;value_colors&quot;: [], &quot;value_font_family&quot;: &quot;Consolas, \&quot;Liberation Mono\&quot;, Menlo, Courier, monospace&quot;, &quot;value_font_size&quot;: 16, &quot;value_label_font_family&quot;: &quot;Consolas, \&quot;Liberation Mono\&quot;, Menlo, Courier, monospace&quot;, &quot;value_label_font_size&quot;: 10}, &quot;title&quot;: null, &quot;tooltip_border_radius&quot;: 0, &quot;tooltip_fancy_mode&quot;: true, &quot;truncate_label&quot;: null, &quot;truncate_legend&quot;: null, &quot;width&quot;: 800, &quot;x_label_rotation&quot;: 0, &quot;x_labels&quot;: [&quot;Caring About Animals&quot;, &quot;Support for Institutional Welfare Solutions&quot;, &quot;Knowledge about Farmed Animal Conditions&quot;, &quot;Consumption of Animal Products (Self-Reported)&quot;, &quot;Perceptions of Meat &amp; Plant-Based Food&quot;, &quot;Support for Farmed Animal Advocacy&quot;, &quot;Perceptions of Intersecting Issues&quot;], &quot;x_labels_major&quot;: null, &quot;x_labels_major_count&quot;: null, &quot;x_labels_major_every&quot;: null, &quot;x_title&quot;: null, &quot;xrange&quot;: null, &quot;y_label_rotation&quot;: 0, &quot;y_labels&quot;: null, &quot;y_labels_major&quot;: null, &quot;y_labels_major_count&quot;: null, &quot;y_labels_major_every&quot;: null, &quot;y_title&quot;: null, &quot;zero&quot;: 0, &quot;legends&quot;: [&quot;Cluster 1&quot;, &quot;Cluster -std1&quot;, &quot;Cluster +std1&quot;]}
		</script>
	<script  type="text/javascript"></script>
</defs>
<g>
	<g>
		<path class="st0" d="M479.4,40l-217.5,94.1l-53.7,211.5l150.5,169.6h241.4l150.5-169.6l-53.7-211.5L479.4,40z"/>
		<text transform="matrix(1 0 0 1 456.3385 40)" class="st1 st2">2.4</text>
	</g>
	<g>
		<path class="st3" d="M479.4,81.7l-181.2,78.4l-44.8,176.3l125.4,141.3H580l125.4-141.3l-44.8-176.3L479.4,81.7z"/>
		<text transform="matrix(1 0 0 1 468.3795 81.6667)" class="st1 st2">2</text>
	</g>
	<g>
		<path class="st0" d="M479.4,123.3l-145,62.8l-35.8,141l100.3,113.1h160.9l100.3-113.1l-35.8-141L479.4,123.3z"/>
		<text transform="matrix(1 0 0 1 456.3385 123.3333)" class="st1 st2">1.6</text>
	</g>
	<g>
		<path class="st0" d="M479.4,165l-108.7,47.1l-26.9,105.8l75.2,84.8h120.7l75.2-84.8l-26.9-105.8L479.4,165z"/>
		<text transform="matrix(1 0 0 1 456.3385 165)" class="st1 st2">1.2</text>
	</g>
	<g>
		<path class="st0" d="M479.4,206.7L406.9,238L389,308.5l50.2,56.5h80.5l50.2-56.5L551.9,238L479.4,206.7z"/>
		<text transform="matrix(1 0 0 1 456.3385 206.6667)" class="st1 st2">0.8</text>
	</g>
	<g>
		<path class="st0" d="M479.4,248.3L443.2,264l-9,35.3l25.1,28.3h40.2l25.1-28.3l-9-35.3L479.4,248.3z"/>
		<text transform="matrix(1 0 0 1 456.3385 248.3333)" class="st1 st2">0.4</text>
	</g>
	<g>
		<path class="st3" d="M479.4,290L479.4,290L479.4,290L479.4,290L479.4,290L479.4,290L479.4,290L479.4,290z"/>
		<text transform="matrix(1 0 0 1 468.3795 290)" class="st1 st2">0</text>
	</g>
</g>
<g>
	<g>
		<path d="M479.4,290V40"/>
		<text transform="matrix(1 0 0 1 419.1949 25.4)" class="st1 st2">Caring About Animals</text>
	</g>
	<g>
		<path d="M479.4,290L261.9,134.1"/>
		<text transform="matrix(0.6235 -0.7818 0.7818 0.6235 202.3136 183.8629)" class="st1 st2">Support for Institutiona…</text>
	</g>
	<g>
		<path d="M479.4,290l-271.2,55.6"/>
		<text transform="matrix(0.2225 0.9749 -0.9749 0.2225 175.6425 275.5095)" class="st1 st2">Knowledge about Farmed A…</text>
	</g>
	<g>
		<path d="M479.4,290L358.7,515.2"/>
		<text transform="matrix(0.901 0.4339 -0.4339 0.901 283.8645 495.7438)" class="st1 st2">Consumption of Animal Pr…</text>
	</g>
	<g>
		<path d="M479.4,290l120.7,225.2"/>
		<text transform="matrix(0.901 -0.4339 0.4339 0.901 539.3284 561.0487)" class="st1 st2">Perceptions of Meat &amp; Pl…</text>
	</g>
	<g>
		<path d="M479.4,290l271.2,55.6"/>
		<text transform="matrix(0.2225 -0.9749 0.9749 0.2225 749.6649 422.2489)" class="st1 st2">Support for Farmed Anima…</text>
	</g>
	<g>
		<path d="M479.4,290l217.5-155.9"/>
		<text transform="matrix(0.6235 0.7818 -0.7818 0.6235 662.6432 66.1869)" class="st1 st2">Perceptions of Intersect…</text>
	</g>
</g>
<g>
	<path class="st4" d="M479.4,179.6l-129.6,17.5l59.5,107.2l27.8,64.5l83-2.8l66.6-54l-15.8-87.6L479.4,179.6z"/>
</g>
<g>
	<path class="st5" d="M479.4,202.5l-98.8,16.7l55.8,79.6l7.2,57.8l63.4-15l26.6-40.5l-0.8-49.4L479.4,202.5z"/>
</g>
<g>
	<path class="st6" d="M479.4,155.6l-159.5,20.1l62.3,134.2l48.4,71.1l102.6,9.4l106.6-67.5l-30-126.4L479.4,155.6z"/>
</g>
<g transform="translate(179, 20)">
	<g>
		<g>
			<circle class="st7" cx="300.4" cy="159.6" r="2.5"/>
		</g>
		<g>
			<circle class="st7" cx="170.8" cy="177.1" r="2.5"/>
		</g>
		<g>
			<circle class="st7" cx="230.3" cy="284.4" r="2.5"/>
		</g>
		<g>
			<circle class="st7" cx="258.2" cy="348.8" r="2.5"/>
		</g>
		<g>
			<circle class="st7" cx="341.1" cy="346" r="2.5"/>
		</g>
		<g>
			<circle class="st7" cx="407.7" cy="292" r="2.5"/>
		</g>
		<g>
			<circle class="st7" cx="391.9" cy="204.4" r="2.5"/>
		</g>
	</g>
	<g>
		<g>
			<circle class="st8" cx="300.4" cy="182.5" r="2.5"/>
		</g>
		<g>
			<circle class="st8" cx="201.6" cy="199.2" r="2.5"/>
		</g>
		<g>
			<circle class="st8" cx="257.5" cy="278.8" r="2.5"/>
		</g>
		<g>
			<circle class="st8" cx="264.7" cy="336.6" r="2.5"/>
		</g>
		<g>
			<circle class="st8" cx="328.1" cy="321.6" r="2.5"/>
		</g>
		<g>
			<circle class="st8" cx="354.6" cy="281.1" r="2.5"/>
		</g>
		<g>
			<circle class="st8" cx="353.9" cy="231.7" r="2.5"/>
		</g>
	</g>
	<g>
		<g>
			<circle class="st9" cx="300.4" cy="135.6" r="2.5"/>
		</g>
		<g>
			<circle class="st9" cx="140.9" cy="155.7" r="2.5"/>
		</g>
		<g>
			<circle class="st9" cx="203.2" cy="289.9" r="2.5"/>
		</g>
		<g>
			<circle class="st9" cx="251.6" cy="361" r="2.5"/>
		</g>
		<g>
			<circle class="st9" cx="354.2" cy="370.4" r="2.5"/>
		</g>
		<g>
			<circle class="st9" cx="460.8" cy="302.9" r="2.5"/>
		</g>
		<g>
			<circle class="st9" cx="430.9" cy="176.5" r="2.5"/>
		</g>
	</g>
</g>
<g transform="translate(179, 20)">
</g>
<g transform="translate(179, 20)">
	<g transform="translate(0 0)" class="st10">
		<polygon class="st11" points="0,0 0,0 0,0 		"/>
	</g>
</g>
<g transform="translate(10, 30)">
	<g id="activate-serie-0">
		<rect y="1" class="st12" width="12" height="12"/>
		<text transform="matrix(1 0 0 1 17 11.2)" class="st1 st13">Cluster 1</text>
	</g>
	<g id="activate-serie-1">
		<rect y="22" class="st14" width="12" height="12"/>
		<text transform="matrix(1 0 0 1 17 32.2)" class="st1 st13">Cluster -std1</text>
	</g>
	<g id="activate-serie-2">
		<rect y="43" class="st15" width="12" height="12"/>
		<text transform="matrix(1 0 0 1 17 53.2)" class="st1 st13">Cluster +std1</text>
	</g>
</g>
<g transform="translate(790, 30)">
</g>
</svg>
